HIERARCHY
ROOT base
{
	OFFSET 0.0 0.0 0.0
	CHANNELS 6 Xposition Yposition Zposition Zrotation Yrotation Xrotation
	JOINT root
	{
		OFFSET 0 0 0
		CHANNELS 6 Xposition Yposition Zposition Zrotation Yrotation Xrotation
		JOINT chest
		{
			OFFSET 0 4.72302 0
			CHANNELS 3 Zrotation Yrotation Xrotation
			JOINT neck
			{
				OFFSET 0 4.47788 0
				CHANNELS 3 Zrotation Yrotation Xrotation
				End Site
				{
					OFFSET 0.0 0.0 0.0
				}
			}
			JOINT right_shoulder
			{
				OFFSET -0.481 4.87 3.6622
				CHANNELS 3 Zrotation Yrotation Xrotation
				JOINT right_elbow
				{
					OFFSET 0 -5.49576 0
					CHANNELS 3 Zrotation Yrotation Xrotation
					JOINT right_wrist
					{
						OFFSET 0 -5.17894 0
						CHANNELS 3 Zrotation Yrotation Xrotation
						End Site
						{
							OFFSET 0.0 0.0 0.0
						}
					}
				}
			}
			JOINT left_shoulder
			{
				OFFSET -0.481 4.87 -3.6622
				CHANNELS 3 Zrotation Yrotation Xrotation
				JOINT left_elbow
				{
					OFFSET 0 -5.49576 0
					CHANNELS 3 Zrotation Yrotation Xrotation
					JOINT left_wrist
					{
						OFFSET 0 -5.17894 0
						CHANNELS 3 Zrotation Yrotation Xrotation
						End Site
						{
							OFFSET 0.0 0.0 0.0
						}
					}
				}
			}
		}
		JOINT right_hip
		{
			OFFSET 0 0 1.69774
			CHANNELS 3 Zrotation Yrotation Xrotation
			JOINT right_knee
			{
				OFFSET 0 -8.43092 0
				CHANNELS 3 Zrotation Yrotation Xrotation
				JOINT right_ankle
				{
					OFFSET 0 -8.1974 0
					CHANNELS 3 Zrotation Yrotation Xrotation
					End Site
					{
						OFFSET 0.0 0.0 0.0
					}
				}
			}
		}
		JOINT left_hip
		{
			OFFSET 0 0 -1.69774
			CHANNELS 3 Zrotation Yrotation Xrotation
			JOINT left_knee
			{
				OFFSET 0 -8.43092 0
				CHANNELS 3 Zrotation Yrotation Xrotation
				JOINT left_ankle
				{
					OFFSET 0 -8.1974 0
					CHANNELS 3 Zrotation Yrotation Xrotation
					End Site
					{
						OFFSET 0.0 0.0 0.0
					}
				}
			}
		}
	}
	JOINT red_arrow
	{
		OFFSET 0 0 0
		CHANNELS 3 Zrotation Yrotation Xrotation
		End Site
		{
			OFFSET 0.0 0.0 0.0
		}
	}
	JOINT blue_arrow
	{
		OFFSET 0 0 0
		CHANNELS 3 Zrotation Yrotation Xrotation
		End Site
		{
			OFFSET 0.0 0.0 0.0
		}
	}
}
MOTION
Frames: 9
Frame Time: 0.0333333333333333
0 18.08466 0 0 0 0 0 0 0 0 -90 0 0 0 0 0 0 0 0 0 -90 0 0 0 0 0 0 0 0 90 0 0 0 0 0 0 0 0 0 0 0 0 0 0 0 0 0 0 0 0 0 0 0 0 0 0 0 0 0 0
-0.382711503654718 0 -0.019416930526495 0 -0.598026796541919 0 0 17.9441477775574 0 -4.1732672504221 -9.93923337957349E-17 2.79599071839605 -0.917505764768784 0.207498847290385 1.38596554946075 -16.7836831488895 -4.71129986238577 0.237785047207909 12.1061839794262 -9.88638499008543 -13.5157543390725 10.663986303972 0 0 0 0 0 10.8735080954355 -7.03504803662522 13.3045114670808 4.92548078315433 0 0 0 0 0 0.951881178022514 -0.989447920794995 -2.65410379045079 3.72986401601136E-05 0 0 1.10481567420746 -8.34442965991931 2.36349243929855 2.56341899644803 -0.799639058019068 -1.56551333857125 0.000299515353149172 0 0 -7.81673564807222 10.5270980338669 -2.93880315111002 0 0 0 0 0 0
-0.736135756969452 0 -0.0584086382761598 0 -0.525648889006074 0 0 17.933562207222 0 -5.15807827851201 1.36961350114232 2.13457166238246 -6.63359446999554 -1.04717106968826 3.96927831764023 -18.5143392790874 -6.53846445133694 0.435053994905121 14.3920442355445 -9.91197840636122 -28.196343626823 0.282039961892689 0 0 0 0 0 6.1830177220531 -8.44118372637653 22.6131564404606 -0.0008129341988868 0 0 0 0 0 4.55326397130239 -2.22191403494759 -2.20692702394531 0.00122817663128564 0 0 -4.59389509698544 -6.54834940711485 0.617574756166422 4.87038562684076 -0.35029976050758 -1.12573207798671 0.000486229198340657 0 0 -8.27296615862156 8.59498145894822 -2.41403584593865 0 0 0 0 0 0
-1.22527642846107 0 -0.11120568588376 0 -0.288848217475859 0 0 17.8105998158455 0 -8.0806050432634 4.45472211493225 1.62570981578995 -12.2069660524197 -1.52026638138826 7.1514272355294 -19.5622375716787 -9.11881179996924 2.05345345039537 12.1460610033186 -16.7543858855645 -45.4347159772124 -2.42038481037627E-06 0 0 0 0 0 -2.07207183521409 -6.67772752523434 35.052282906198 -0.00213946337601394 0 0 0 0 0 8.56673496652095 -3.12626669185288 -2.56392100270145 0.00129753125340579 0 0 -2.97326197479778 -7.69554659076654 0.652846094570963 9.65994526016508 0.684599158641488 -1.54446739157852 0.000823819656545885 0 0 -7.32542285673368 5.39990616513641 -1.21100195662208 0 0 0 0 0 0
-1.79207935929298 0 -0.0943877035751939 0 0.108521152191864 0 0 17.6677740454674 0 -11.3437971493172 7.40417791492865 0.197943592360259 -18.2399873803073 -1.73455014868121 11.4376701064042 -20.4247928363452 -10.1463884652107 3.81786665673734 12.0841871412454 -26.3208550281954 -61.2874699655478 -2.50196252662344E-05 0 0 0 0 0 -9.86395530007928 -0.0795952585605665 44.3247326279538 -0.000100515295341341 0 0 0 0 0 13.1105494619739 -4.64938499306461 -2.32505568471749 0.00161084606703987 0 0 -1.80503476296895 -8.30248300997082 0.538810387262049 14.969767388273 1.52000291599186 -1.32680894018804 0.00316888239874778 0 0 -6.45731875471659 1.68664016965877 -0.303086735204128 0 0 0 0 0 0
-2.48073016405106 0 -0.0488726619631052 0 0.606514997791801 0 0 17.6543588161469 0 -15.3269343178821 9.1311257013946 -0.841066617025255 -23.9645397881113 -2.12573751659759 13.817870089312 -21.0444316563139 -8.98190087645844 5.84268880005056 14.7762104385441 -34.5712484883299 -71.7795116793407 -0.00080898591265455 0 0 0 0 0 -15.3468185601371 10.0300370067622 49.2273346254256 -0.00517508725826788 0 0 0 0 0 19.8555093823596 -6.67609067362713 -2.94570261318405 -1.5251342841133 0 0 -3.48299809079939 -6.60672835859517 0.765642701609538 21.5529789649933 2.77806667117382 -1.78880230804951 0.00228757225955543 0 0 -10.419922823379 -0.865666263962529 0.557771117177956 0 0 0 0 0 0
-3.29437421560288 0 0.0641443803906441 0 1.13734673620895 0 0 17.653760933876 0 -20.4664123104796 9.46104583489203 -2.06238392604272 -29.1580474541651 -2.27659381083287 14.3889348468786 -19.3475911480959 -6.6259618701672 7.33234838410395 16.1290709797599 -39.6510276700562 -73.2681312979716 -1.54935963197692E-07 0 0 0 0 0 -19.0253967124047 21.2174677030023 49.6877834310396 -6.03735688523525E-07 0 0 0 0 0 30.3619475318869 -7.58574762900772 -3.93383325026715 -7.20351194212002 0 0 -5.43573665584734 -2.43393493292234 1.29956463390829 31.0732853185405 4.45064482660335 -1.82108605691217 -2.65622855170622 0 0 -15.1875166382522 -2.51175444229902 1.58357032271741 0 0 0 0 0 0
-3.99541932940483 0 0.255911598354578 0 1.67650829733302 0 0 17.5581831932068 0 -25.0530722426747 9.29794525564569 -3.80617281590844 -32.5796716054377 -2.44948647073465 13.8198650398406 -16.5047123454672 -4.30912569250709 7.8556750925604 13.3117284801628 -41.5640039043613 -65.1218870206661 -0.00183942030278935 0 0 0 0 0 -21.5661466412103 31.7516131506225 47.532814596951 -0.00147379851310913 0 0 0 0 0 41.173968655879 -6.72046334688859 -4.33227121176257 -15.7670272461109 0 0 -6.25386212300054 2.04310407882695 1.5972429131032 42.27240922527 5.29196620359662 -0.642148790222093 -11.0484849731087 0 0 -15.3889535592524 -2.99570917292899 2.23018382389185 0 0 0 0 0 0
-4.46631708741188 0 0.430179799348116 0 2.17695083406625 0 0 17.2751326918602 0 -27.9251804683057 8.41813112987546 -5.14777747063382 -33.2143655576236 -2.44036420222733 12.2451336812241 -13.1672453057411 -2.95794330855653 7.0489315564039 8.59098213910616 -39.8006095839829 -52.3263894945961 -0.217442967569617 0 0 0 0 0 -21.8998944870487 40.4594546075033 44.7948422601032 -2.76258043411055E-07 0 0 0 0 0 50.6526167318844 -5.13380949047365 -4.05218490969037 -25.982784093348 0 0 -4.8986579332697 5.03024666780389 1.62468527427418 51.990971226593 5.07841336707759 0.941043029473711 -21.5167453762247 0 0 -11.430875044224 -2.1997951944699 2.22156599426908 0 0 0 0 0 0
